<svg width="800" height="800" viewBox="0 0 800 800" fill="none" xmlns="http://www.w3.org/2000/svg">
<path d="M402.667 633.333H233.333C224.493 633.333 216.014 629.821 209.763 623.57C203.512 617.319 200 608.841 200 600C200 591.159 203.512 582.681 209.763 576.43C216.014 570.179 224.493 566.667 233.333 566.667H402.667C409.859 517.25 432.716 471.445 467.876 435.984C503.037 400.524 548.646 377.279 598 369.667C606.841 368.341 615.846 370.581 623.035 375.894C630.224 381.208 635.007 389.159 636.333 398C637.659 406.841 635.419 415.846 630.106 423.035C624.792 430.224 616.841 435.007 608 436.333C572.728 441.74 540.123 458.324 514.981 483.646C489.839 508.968 473.488 541.691 468.333 577C465.876 592.665 457.915 606.941 445.88 617.266C433.844 627.59 418.523 633.287 402.667 633.333Z" fill="#8A39F7"></path>
<path d="M652 502L600 166.667H666.667C675.507 166.667 683.986 163.155 690.237 156.904C696.488 150.652 700 142.174 700 133.333C700 124.493 696.488 116.014 690.237 109.763C683.986 103.512 675.507 100 666.667 100H600C590.336 99.8906 580.764 101.883 571.947 105.841C563.131 109.798 555.279 115.624 548.938 122.917C542.596 130.21 537.916 138.794 535.222 148.075C532.527 157.356 531.883 167.112 533.333 176.667L585 512.333C564.306 523.581 548.245 541.772 539.65 563.7C531.054 585.629 530.475 609.888 538.013 632.202C545.552 654.517 560.725 673.454 580.859 685.676C600.993 697.899 624.794 702.623 648.07 699.015C671.345 695.407 692.6 683.7 708.089 665.956C723.578 648.212 732.306 625.57 732.736 602.02C733.166 578.471 725.27 555.526 710.439 537.228C695.608 518.93 674.795 506.455 651.667 502H652ZM633.333 633.333C626.741 633.333 620.296 631.378 614.814 627.716C609.333 624.053 605.06 618.847 602.537 612.756C600.014 606.665 599.354 599.963 600.64 593.497C601.927 587.031 605.101 581.091 609.763 576.43C614.425 571.768 620.364 568.593 626.83 567.307C633.296 566.021 639.998 566.681 646.089 569.204C652.18 571.727 657.386 575.999 661.049 581.481C664.712 586.963 666.667 593.407 666.667 600C666.667 608.841 663.155 617.319 656.903 623.57C650.652 629.821 642.174 633.333 633.333 633.333ZM166.667 500C146.888 500 127.554 505.865 111.11 516.853C94.6646 527.841 81.8474 543.459 74.2786 561.732C66.7098 580.004 64.7295 600.111 68.588 619.509C72.4465 638.907 81.9706 656.725 95.9559 670.711C109.941 684.696 127.759 694.22 147.158 698.079C166.556 701.937 186.662 699.957 204.935 692.388C223.207 684.819 238.825 672.002 249.813 655.557C260.802 639.112 266.667 619.778 266.667 600C266.667 573.478 256.131 548.043 237.377 529.289C218.624 510.536 193.188 500 166.667 500ZM166.667 633.333C160.074 633.333 153.629 631.378 148.148 627.716C142.666 624.053 138.393 618.847 135.871 612.756C133.348 606.665 132.688 599.963 133.974 593.497C135.26 587.031 138.435 581.091 143.096 576.43C147.758 571.768 153.698 568.593 160.164 567.307C166.63 566.021 173.332 566.681 179.423 569.204C185.514 571.727 190.719 575.999 194.382 581.481C198.045 586.963 200 593.407 200 600C200 608.841 196.488 617.319 190.237 623.57C183.986 629.821 175.507 633.333 166.667 633.333Z" fill="black"></path>
</svg>